# xmcd CD database file
#
# Track frame offsets:
#	150
#	19107
#	42705
#	61642
#
# Disc length: 1134 seconds
#
# Revision: 0
# Processed by: cddbd v1.5.1PL0 Copyright (c) Steve Scherf et al.
# Submitted via: CDex 1.51
#
DISCID=2c046c04
DTITLE=宮崎歩 - デジモンアドベンチャー：brave heart
DYEAR=1999
DGENRE=Vocal
TTITLE0=brave heart
TTITLE1=進化でガッツ！
TTITLE2=brave heart(オリジナルカラオケ)
TTITLE3=進化でガッツ！(オリジナルカラオケ)
EXTD=YEAR: 1999
EXTT0=
EXTT1=
EXTT2=
EXTT3=
PLAYORDER=
